<svg id="svg" version="1.1" xmlns="http://www.w3.org/2000/svg" xmlns:xlink="http://www.w3.org/1999/xlink" width="400" height="400" viewBox="0, 0, 400,400"><g id="svgg"><path id="path0" d="M115.700 175.328 C 90.151 181.207,85.387 217.004,108.652 228.282 C 116.073 231.879,128.211 232.522,133.654 229.605 C 134.388 229.211,135.181 228.889,135.416 228.889 C 138.426 228.889,145.071 221.394,147.245 215.547 C 149.149 210.426,148.785 210.041,142.022 210.032 C 136.524 210.024,135.537 210.369,133.942 212.857 C 126.157 225.005,108.364 218.386,108.340 203.333 C 108.324 193.056,112.950 187.747,122.011 187.644 C 128.233 187.573,128.883 187.825,132.892 191.861 C 134.708 193.689,136.342 195.191,136.523 195.197 C 148.343 195.630,149.097 195.291,147.270 190.364 C 142.932 178.658,129.345 172.187,115.700 175.328 M178.333 175.327 C 177.070 175.910,175.556 177.258,175.556 177.800 C 175.556 177.999,174.909 179.535,174.118 181.211 C 173.328 182.888,171.995 185.714,171.156 187.493 C 170.316 189.271,169.630 190.820,169.630 190.936 C 169.630 191.174,164.341 202.426,162.224 206.691 C 161.460 208.232,160.713 209.899,160.564 210.395 C 160.416 210.891,159.460 213.046,158.440 215.185 C 157.419 217.324,156.117 220.074,155.546 221.296 C 151.186 230.627,151.221 230.741,158.404 230.741 C 164.673 230.741,165.988 230.163,167.804 226.611 C 169.281 223.723,169.802 223.620,182.630 223.676 C 190.189 223.708,190.933 223.969,192.593 227.169 C 194.100 230.076,195.034 230.534,199.765 230.682 C 209.429 230.985,209.387 231.517,201.064 214.245 C 200.275 212.607,199.630 211.136,199.630 210.975 C 199.630 210.814,198.816 208.987,197.821 206.915 C 196.826 204.843,195.008 200.981,193.781 198.333 C 192.553 195.685,190.534 191.378,189.293 188.761 C 188.052 186.145,187.022 183.812,187.003 183.576 C 186.923 182.563,183.437 176.462,182.593 175.857 C 181.299 174.930,179.641 174.724,178.333 175.327 M219.259 175.460 C 214.500 175.864,214.824 173.862,214.820 202.884 C 214.817 233.213,214.216 230.741,221.587 230.741 C 228.769 230.741,228.866 230.623,228.836 221.896 C 228.812 215.017,229.031 214.619,232.825 214.651 C 236.232 214.679,236.811 215.128,239.610 219.908 C 240.892 222.097,242.228 224.306,242.578 224.815 C 242.928 225.324,243.514 226.375,243.881 227.151 C 245.311 230.170,246.320 230.539,253.525 230.678 C 262.249 230.846,262.587 230.478,259.025 224.687 C 257.878 222.822,256.096 219.880,255.064 218.148 C 254.032 216.417,252.888 214.603,252.520 214.117 C 251.252 212.440,251.710 210.469,253.907 208.148 C 263.785 197.714,258.339 179.573,244.349 176.310 C 241.492 175.644,224.060 175.053,219.259 175.460 M274.502 175.562 C 271.653 175.720,270.949 175.880,270.521 176.467 C 269.977 177.210,269.703 225.828,270.227 228.450 C 270.669 230.662,271.110 230.718,288.108 230.728 L 303.372 230.736 304.278 229.829 C 305.523 228.584,305.680 220.495,304.483 219.298 C 303.657 218.471,297.346 217.883,294.099 218.330 C 291.162 218.734,285.700 218.199,284.729 217.412 C 283.740 216.612,283.325 212.180,284.069 210.382 C 284.908 208.357,285.498 208.217,293.286 208.184 C 303.352 208.142,303.159 208.279,302.908 201.332 C 302.711 195.867,302.816 195.926,293.210 195.926 C 284.353 195.926,284.262 195.895,283.872 192.771 C 283.481 189.642,285.018 187.398,287.272 187.807 C 287.448 187.839,290.975 187.846,295.109 187.822 C 304.753 187.765,304.444 187.965,304.444 181.766 C 304.444 176.935,304.103 176.104,301.949 175.700 C 300.320 175.394,279.421 175.289,274.502 175.562 M239.345 188.123 C 246.361 189.028,246.942 199.560,240.081 201.465 C 237.143 202.281,230.815 201.960,229.798 200.943 C 228.640 199.784,228.290 191.094,229.323 189.146 C 230.038 187.798,233.824 187.412,239.345 188.123 M180.815 200.093 C 181.452 200.596,184.344 207.181,184.692 208.922 C 185.066 210.792,184.425 211.111,180.301 211.111 C 174.654 211.111,174.435 210.827,176.429 206.097 C 179.209 199.502,179.523 199.072,180.815 200.093 " stroke="none" fill="#064e8d" fill-rule="evenodd"></path><path id="path1" d="M0.000 200.000 L 0.000 400.000 200.000 400.000 L 400.000 400.000 400.000 200.000 L 400.000 0.000 200.000 0.000 L 0.000 0.000 0.000 200.000 M130.285 175.192 C 139.390 177.834,145.784 183.518,147.846 190.805 C 149.126 195.327,148.201 195.992,140.939 195.766 C 135.462 195.597,135.849 195.761,132.654 192.240 C 129.657 188.937,127.235 187.778,123.329 187.778 C 113.584 187.778,109.084 192.514,109.077 202.778 L 109.074 208.333 110.320 210.800 C 115.166 220.389,129.324 221.240,133.825 212.211 C 134.920 210.016,136.302 209.601,142.159 209.713 C 149.270 209.848,149.473 210.038,147.837 215.020 C 144.100 226.407,135.038 232.151,121.399 231.777 C 101.844 231.240,89.284 214.063,94.400 194.854 C 97.131 184.600,105.554 176.735,115.688 174.977 C 117.546 174.655,119.151 174.300,119.255 174.189 C 119.692 173.721,127.739 174.453,130.285 175.192 M182.684 175.234 C 183.681 175.768,184.989 178.044,187.179 183.059 C 189.078 187.406,190.946 191.413,194.818 199.444 C 195.800 201.481,196.723 203.565,196.869 204.074 C 197.015 204.583,197.452 205.451,197.840 206.002 C 198.228 206.553,198.726 207.553,198.946 208.224 C 199.166 208.895,200.244 211.315,201.340 213.600 C 202.436 215.886,203.333 217.860,203.333 217.987 C 203.333 218.114,204.259 220.129,205.391 222.465 C 206.622 225.008,207.533 227.434,207.661 228.511 L 207.874 230.309 206.437 230.708 C 200.546 232.344,193.143 230.627,192.177 227.402 C 191.265 224.357,190.276 224.085,180.012 224.053 C 169.742 224.020,170.021 223.939,167.521 227.693 C 165.507 230.717,164.921 230.926,158.457 230.926 C 155.469 230.926,152.886 230.787,152.716 230.617 C 151.885 229.786,152.487 226.788,154.191 223.270 C 155.145 221.300,155.926 219.589,155.926 219.467 C 155.926 219.345,156.759 217.568,157.778 215.520 C 158.796 213.471,159.630 211.653,159.630 211.481 C 159.630 211.309,160.731 208.863,162.078 206.047 C 167.496 194.713,168.148 193.328,168.148 193.162 C 168.148 193.067,169.065 191.054,170.185 188.687 C 171.306 186.321,172.222 184.306,172.222 184.209 C 172.222 183.619,175.983 176.363,176.542 175.875 C 178.080 174.533,180.837 174.245,182.684 175.234 M243.656 175.598 C 257.066 178.288,263.520 193.600,256.289 205.568 C 255.421 207.004,254.426 208.380,254.078 208.626 C 253.326 209.157,252.222 211.193,252.222 212.048 C 252.222 212.660,256.727 220.469,258.604 223.111 C 259.168 223.906,259.630 224.715,259.630 224.910 C 259.630 225.104,260.046 225.759,260.556 226.364 C 263.455 229.810,261.403 231.338,254.088 231.180 C 245.888 231.002,245.136 230.631,242.392 225.404 C 241.440 223.589,240.178 221.439,239.589 220.626 C 239.000 219.813,238.518 218.965,238.518 218.741 C 238.514 217.224,235.715 215.189,233.333 214.972 C 229.461 214.618,229.484 214.575,229.239 222.469 C 229.127 226.102,228.908 229.347,228.753 229.681 C 228.063 231.166,219.195 231.868,216.612 230.642 C 214.751 229.759,214.815 230.622,214.583 203.255 C 214.341 174.597,214.205 175.681,218.098 175.169 C 220.822 174.811,241.458 175.157,243.656 175.598 M301.221 175.115 C 304.343 175.238,304.815 176.075,304.815 181.489 C 304.815 188.296,305.114 188.108,294.074 188.254 C 284.074 188.385,283.230 188.824,284.427 193.268 C 285.008 195.426,285.292 195.497,293.458 195.529 C 303.290 195.568,303.678 195.863,303.172 202.925 C 302.736 209.006,303.578 208.519,293.391 208.578 C 284.277 208.630,284.675 208.428,284.503 213.103 C 284.399 215.935,284.486 216.656,284.993 217.162 C 285.669 217.838,285.691 217.839,296.296 217.935 C 305.745 218.019,305.926 218.145,305.926 224.612 C 305.926 230.942,305.620 231.120,294.619 231.171 C 271.634 231.279,270.810 231.206,269.965 228.982 C 269.676 228.221,269.348 182.038,269.599 177.386 C 269.684 175.803,270.563 175.377,274.136 175.185 C 277.369 175.012,297.290 174.961,301.221 175.115 M232.158 188.463 C 229.377 188.787,229.462 188.617,229.322 194.143 C 229.134 201.506,229.138 201.510,235.741 201.359 C 240.499 201.250,242.120 200.662,243.420 198.572 C 245.360 195.451,243.900 189.624,240.982 188.845 C 239.329 188.403,234.471 188.193,232.158 188.463 M179.219 200.816 C 178.169 202.777,175.556 209.124,175.556 209.711 C 175.556 210.351,176.508 210.753,177.963 210.727 C 178.370 210.720,179.576 210.824,180.642 210.959 C 184.743 211.478,185.098 210.457,182.741 204.924 C 180.500 199.666,180.090 199.188,179.219 200.816 " stroke="none" fill="#fbfbfb" fill-rule="evenodd"></path><path id="path2" d="M221.393 175.077 C 221.854 175.165,222.521 175.162,222.875 175.069 C 223.229 174.977,222.852 174.904,222.037 174.908 C 221.222 174.912,220.932 174.988,221.393 175.077 M214.571 181.296 C 214.573 182.926,214.638 183.547,214.716 182.675 C 214.794 181.804,214.793 180.471,214.714 179.712 C 214.634 178.954,214.570 179.667,214.571 181.296 M269.723 186.481 C 269.727 187.296,269.803 187.586,269.892 187.125 C 269.980 186.665,269.977 185.998,269.884 185.644 C 269.791 185.290,269.719 185.667,269.723 186.481 M294.537 188.048 C 295.301 188.127,296.551 188.127,297.315 188.048 C 298.079 187.968,297.454 187.902,295.926 187.902 C 294.398 187.902,293.773 187.968,294.537 188.048 M258.995 194.630 C 258.998 195.648,259.070 196.021,259.155 195.458 C 259.240 194.895,259.238 194.062,259.150 193.606 C 259.062 193.150,258.992 193.611,258.995 194.630 M269.716 195.185 C 269.716 195.898,269.792 196.190,269.885 195.833 C 269.978 195.477,269.978 194.894,269.885 194.537 C 269.792 194.181,269.716 194.472,269.716 195.185 M287.870 195.811 C 288.227 195.904,288.810 195.904,289.167 195.811 C 289.523 195.718,289.231 195.641,288.519 195.641 C 287.806 195.641,287.514 195.718,287.870 195.811 M296.566 195.823 C 297.223 195.905,298.390 195.906,299.158 195.826 C 299.927 195.746,299.389 195.679,297.963 195.677 C 296.537 195.675,295.908 195.741,296.566 195.823 M236.019 201.737 C 236.375 201.830,236.958 201.830,237.315 201.737 C 237.671 201.644,237.380 201.567,236.667 201.567 C 235.954 201.567,235.662 201.644,236.019 201.737 M93.434 203.333 C 93.434 204.250,93.506 204.625,93.595 204.167 C 93.683 203.708,93.683 202.958,93.595 202.500 C 93.506 202.042,93.434 202.417,93.434 203.333 M269.785 210.741 C 269.785 214.713,269.839 216.338,269.906 214.352 C 269.972 212.366,269.972 209.116,269.906 207.130 C 269.839 205.144,269.785 206.769,269.785 210.741 M214.530 213.333 C 214.530 214.046,214.607 214.338,214.700 213.981 C 214.793 213.625,214.793 213.042,214.700 212.685 C 214.607 212.329,214.530 212.620,214.530 213.333 M297.135 218.044 C 297.698 218.129,298.531 218.126,298.987 218.038 C 299.442 217.951,298.981 217.881,297.963 217.884 C 296.944 217.886,296.572 217.958,297.135 218.044 M228.990 219.630 C 228.990 220.546,229.062 220.921,229.150 220.463 C 229.239 220.005,229.239 219.255,229.150 218.796 C 229.062 218.338,228.990 218.713,228.990 219.630 M121.950 218.784 C 122.513 218.869,123.346 218.867,123.801 218.779 C 124.257 218.691,123.796 218.622,122.778 218.624 C 121.759 218.627,121.387 218.699,121.950 218.784 M269.741 221.481 C 269.741 222.602,269.810 223.060,269.895 222.500 C 269.980 221.940,269.980 221.023,269.895 220.463 C 269.810 219.903,269.741 220.361,269.741 221.481 M98.519 220.486 C 98.519 220.550,99.060 221.092,99.722 221.690 L 100.926 222.778 99.838 221.574 C 98.824 220.452,98.519 220.200,98.519 220.486 M181.769 223.975 C 182.640 224.054,183.974 224.053,184.732 223.973 C 185.491 223.893,184.778 223.829,183.148 223.831 C 181.519 223.832,180.898 223.897,181.769 223.975 M228.990 226.296 C 228.990 227.213,229.062 227.588,229.150 227.130 C 229.239 226.671,229.239 225.921,229.150 225.463 C 229.062 225.005,228.990 225.380,228.990 226.296 M251.389 231.012 C 252.255 231.090,253.671 231.090,254.537 231.012 C 255.403 230.934,254.694 230.870,252.963 230.870 C 251.231 230.870,250.523 230.934,251.389 231.012 M274.352 231.009 C 275.014 231.091,276.097 231.091,276.759 231.009 C 277.421 230.927,276.880 230.859,275.556 230.859 C 274.231 230.859,273.690 230.927,274.352 231.009 M298.788 231.008 C 299.446 231.090,300.612 231.091,301.381 231.011 C 302.149 230.931,301.611 230.864,300.185 230.862 C 298.759 230.861,298.131 230.926,298.788 231.008 " stroke="none" fill="#9cbbd3" fill-rule="evenodd"></path><path id="path3" d="M120.845 174.347 C 121.818 174.423,123.318 174.422,124.178 174.345 C 125.037 174.267,124.241 174.204,122.407 174.206 C 120.574 174.207,119.871 174.270,120.845 174.347 M283.981 175.083 C 284.644 175.165,285.727 175.165,286.389 175.083 C 287.051 175.001,286.509 174.933,285.185 174.933 C 283.861 174.933,283.319 175.001,283.981 175.083 M294.364 175.088 C 295.441 175.163,297.107 175.163,298.068 175.087 C 299.029 175.011,298.148 174.949,296.111 174.950 C 294.074 174.951,293.288 175.013,294.364 175.088 M100.908 183.056 L 99.444 184.630 101.019 183.166 C 102.482 181.804,102.763 181.481,102.483 181.481 C 102.422 181.481,101.714 182.190,100.908 183.056 M269.353 183.519 C 269.357 184.333,269.433 184.623,269.521 184.162 C 269.610 183.702,269.606 183.035,269.514 182.681 C 269.421 182.327,269.349 182.704,269.353 183.519 M214.597 190.556 C 214.598 194.222,214.653 195.672,214.721 193.778 C 214.788 191.883,214.788 188.883,214.720 187.111 C 214.652 185.339,214.597 186.889,214.597 190.556 M290.284 188.046 C 290.950 188.129,291.950 188.127,292.507 188.042 C 293.063 187.958,292.519 187.890,291.296 187.893 C 290.074 187.895,289.619 187.964,290.284 188.046 M231.579 188.414 C 232.142 188.499,232.975 188.497,233.431 188.409 C 233.887 188.321,233.426 188.251,232.407 188.254 C 231.389 188.257,231.016 188.329,231.579 188.414 M286.578 188.410 C 287.039 188.499,287.706 188.495,288.060 188.403 C 288.414 188.310,288.037 188.237,287.222 188.242 C 286.407 188.246,286.118 188.322,286.578 188.410 M112.573 191.389 L 111.296 192.778 112.685 191.501 C 113.978 190.313,114.244 190.000,113.962 190.000 C 113.900 190.000,113.275 190.625,112.573 191.389 M269.345 192.593 C 269.345 193.306,269.421 193.597,269.515 193.241 C 269.608 192.884,269.608 192.301,269.515 191.944 C 269.421 191.588,269.345 191.880,269.345 192.593 M133.333 193.079 C 133.333 193.143,133.875 193.684,134.537 194.283 L 135.741 195.370 134.653 194.167 C 133.639 193.045,133.333 192.793,133.333 193.079 M293.061 195.821 C 293.624 195.906,294.457 195.904,294.912 195.816 C 295.368 195.728,294.907 195.659,293.889 195.661 C 292.870 195.664,292.498 195.736,293.061 195.821 M93.790 198.148 C 93.790 198.861,93.866 199.153,93.959 198.796 C 94.052 198.440,94.052 197.856,93.959 197.500 C 93.866 197.144,93.790 197.435,93.790 198.148 M108.650 203.148 C 108.649 204.981,108.711 205.778,108.789 204.919 C 108.867 204.059,108.868 202.559,108.791 201.585 C 108.715 200.612,108.651 201.315,108.650 203.148 M269.365 201.667 C 269.368 202.685,269.440 203.058,269.525 202.495 C 269.610 201.932,269.608 201.099,269.520 200.643 C 269.432 200.188,269.362 200.648,269.365 201.667 M303.056 202.037 C 303.060 202.852,303.136 203.142,303.225 202.681 C 303.314 202.220,303.310 201.553,303.217 201.199 C 303.125 200.845,303.052 201.222,303.056 202.037 M214.550 203.519 C 214.553 204.537,214.625 204.910,214.710 204.347 C 214.795 203.784,214.793 202.950,214.705 202.495 C 214.617 202.039,214.548 202.500,214.550 203.519 M93.427 206.111 C 93.431 206.926,93.507 207.216,93.595 206.755 C 93.684 206.294,93.681 205.628,93.588 205.273 C 93.495 204.919,93.423 205.296,93.427 206.111 M214.566 209.815 C 214.568 211.241,214.635 211.779,214.715 211.010 C 214.795 210.242,214.794 209.075,214.712 208.418 C 214.630 207.760,214.564 208.389,214.566 209.815 M290.833 208.774 C 291.190 208.867,291.773 208.867,292.130 208.774 C 292.486 208.681,292.194 208.604,291.481 208.604 C 290.769 208.604,290.477 208.681,290.833 208.774 M284.201 213.519 C 284.202 215.148,284.268 215.769,284.346 214.898 C 284.424 214.026,284.423 212.693,284.343 211.935 C 284.264 211.176,284.200 211.889,284.201 213.519 M112.593 214.630 C 113.284 215.343,113.932 215.926,114.034 215.926 C 114.136 215.926,113.654 215.343,112.963 214.630 C 112.272 213.917,111.623 213.333,111.521 213.333 C 111.420 213.333,111.902 213.917,112.593 214.630 M305.694 224.630 C 305.695 226.870,305.756 227.739,305.830 226.561 C 305.903 225.382,305.903 223.548,305.828 222.486 C 305.754 221.424,305.693 222.389,305.694 224.630 M101.111 223.519 C 101.802 224.231,102.451 224.815,102.553 224.815 C 102.655 224.815,102.173 224.231,101.481 223.519 C 100.790 222.806,100.142 222.222,100.040 222.222 C 99.938 222.222,100.420 222.806,101.111 223.519 M142.020 224.537 L 140.556 226.111 142.130 224.647 C 143.594 223.286,143.874 222.963,143.594 222.963 C 143.533 222.963,142.825 223.671,142.020 224.537 M192.222 227.675 C 192.222 227.890,192.565 228.460,192.985 228.940 L 193.748 229.815 193.097 228.704 C 192.241 227.241,192.222 227.220,192.222 227.675 M156.019 231.015 C 157.394 231.087,159.644 231.087,161.019 231.015 C 162.394 230.944,161.269 230.886,158.519 230.886 C 155.769 230.886,154.644 230.944,156.019 231.015 M200.845 231.013 C 201.818 231.090,203.318 231.089,204.178 231.011 C 205.037 230.934,204.241 230.871,202.407 230.872 C 200.574 230.873,199.871 230.937,200.845 231.013 M224.356 231.003 C 224.817 231.091,225.484 231.088,225.838 230.995 C 226.192 230.903,225.815 230.830,225.000 230.834 C 224.185 230.838,223.895 230.914,224.356 231.003 M280.648 231.009 C 281.310 231.091,282.394 231.091,283.056 231.009 C 283.718 230.927,283.176 230.859,281.852 230.859 C 280.528 230.859,279.986 230.927,280.648 231.009 M256.949 231.373 C 257.409 231.462,258.076 231.458,258.430 231.366 C 258.784 231.273,258.407 231.200,257.593 231.205 C 256.778 231.209,256.488 231.284,256.949 231.373 M287.130 231.366 C 287.486 231.460,288.069 231.460,288.426 231.366 C 288.782 231.273,288.491 231.197,287.778 231.197 C 287.065 231.197,286.773 231.273,287.130 231.366 M292.139 231.383 C 293.011 231.461,294.344 231.460,295.102 231.380 C 295.861 231.301,295.148 231.237,293.519 231.238 C 291.889 231.239,291.268 231.305,292.139 231.383 M117.500 231.737 C 117.856 231.830,118.440 231.830,118.796 231.737 C 119.153 231.644,118.861 231.567,118.148 231.567 C 117.435 231.567,117.144 231.644,117.500 231.737 M126.019 231.737 C 126.375 231.830,126.958 231.830,127.315 231.737 C 127.671 231.644,127.380 231.567,126.667 231.567 C 125.954 231.567,125.662 231.644,126.019 231.737 " stroke="none" fill="#c0d4e4" fill-rule="evenodd"></path><path id="path4" d="M181.883 175.278 C 181.968 175.329,182.537 175.787,183.148 176.296 L 184.259 177.222 183.361 176.204 C 182.868 175.644,182.298 175.185,182.096 175.185 C 181.894 175.185,181.798 175.227,181.883 175.278 M218.056 175.447 C 218.514 175.535,219.264 175.535,219.722 175.447 C 220.181 175.358,219.806 175.286,218.889 175.286 C 217.972 175.286,217.597 175.358,218.056 175.447 M233.056 175.460 C 234.634 175.530,237.218 175.530,238.796 175.460 C 240.375 175.391,239.083 175.334,235.926 175.334 C 232.769 175.334,231.477 175.391,233.056 175.460 M271.591 175.480 C 271.346 175.636,272.346 175.709,273.814 175.642 C 277.822 175.461,278.323 175.292,275.000 175.241 C 273.370 175.217,271.837 175.324,271.591 175.480 M280.658 175.457 C 281.529 175.535,282.862 175.534,283.621 175.454 C 284.379 175.375,283.667 175.311,282.037 175.312 C 280.407 175.313,279.787 175.379,280.658 175.457 M288.981 175.460 C 290.356 175.531,292.606 175.531,293.981 175.460 C 295.356 175.389,294.231 175.330,291.481 175.330 C 288.731 175.330,287.606 175.389,288.981 175.460 M215.739 176.299 C 214.792 177.345,215.195 177.442,216.190 176.408 C 216.642 175.939,216.876 175.556,216.711 175.556 C 216.546 175.556,216.109 175.890,215.739 176.299 M269.723 178.704 C 269.727 179.519,269.803 179.808,269.892 179.348 C 269.980 178.887,269.977 178.220,269.884 177.866 C 269.791 177.512,269.719 177.889,269.723 178.704 M304.443 181.927 C 304.342 184.312,304.390 186.131,304.550 185.970 C 304.710 185.809,304.793 183.858,304.733 181.635 L 304.626 177.593 304.443 181.927 M252.407 180.370 C 253.203 181.185,253.937 181.852,254.039 181.852 C 254.141 181.852,253.573 181.185,252.778 180.370 C 251.982 179.556,251.248 178.889,251.146 178.889 C 251.044 178.889,251.612 179.556,252.407 180.370 M102.384 181.944 L 101.296 183.148 102.500 182.060 C 103.622 181.046,103.874 180.741,103.588 180.741 C 103.524 180.741,102.982 181.282,102.384 181.944 M269.744 183.148 C 269.746 184.370,269.816 184.826,269.898 184.160 C 269.980 183.494,269.979 182.494,269.894 181.938 C 269.810 181.381,269.742 181.926,269.744 183.148 M231.759 188.039 C 232.218 188.127,232.968 188.127,233.426 188.039 C 233.884 187.951,233.509 187.879,232.593 187.879 C 231.676 187.879,231.301 187.951,231.759 188.039 M269.761 190.926 C 269.760 192.759,269.823 193.556,269.900 192.696 C 269.978 191.837,269.979 190.337,269.902 189.363 C 269.826 188.389,269.762 189.093,269.761 190.926 M299.167 188.039 C 299.625 188.127,300.375 188.127,300.833 188.039 C 301.292 187.951,300.917 187.879,300.000 187.879 C 299.083 187.879,298.708 187.951,299.167 188.039 M189.656 189.444 C 189.656 189.648,189.894 190.231,190.185 190.741 C 190.476 191.250,190.714 191.500,190.714 191.296 C 190.714 191.093,190.476 190.509,190.185 190.000 C 189.894 189.491,189.656 189.241,189.656 189.444 M283.805 191.481 C 283.805 192.398,283.877 192.773,283.965 192.315 C 284.053 191.856,284.053 191.106,283.965 190.648 C 283.877 190.190,283.805 190.565,283.805 191.481 M258.604 192.222 C 258.604 192.935,258.681 193.227,258.774 192.870 C 258.867 192.514,258.867 191.931,258.774 191.574 C 258.681 191.218,258.604 191.509,258.604 192.222 M133.333 192.708 C 133.333 192.772,133.875 193.314,134.537 193.912 L 135.741 195.000 134.653 193.796 C 133.639 192.674,133.333 192.422,133.333 192.708 M229.016 197.222 C 229.017 198.852,229.082 199.472,229.161 198.601 C 229.239 197.730,229.238 196.397,229.158 195.638 C 229.079 194.880,229.015 195.593,229.016 197.222 M138.806 195.457 C 139.677 195.535,141.011 195.534,141.769 195.454 C 142.528 195.375,141.815 195.311,140.185 195.312 C 138.556 195.313,137.935 195.379,138.806 195.457 M269.767 200.000 C 269.767 202.139,269.828 203.014,269.903 201.944 C 269.977 200.875,269.977 199.125,269.903 198.056 C 269.828 196.986,269.767 197.861,269.767 200.000 M243.606 198.613 L 242.952 199.815 243.698 198.940 C 244.333 198.196,244.673 197.402,244.352 197.410 C 244.301 197.411,243.965 197.953,243.606 198.613 M108.280 203.148 C 108.278 204.981,108.341 205.778,108.419 204.919 C 108.496 204.059,108.497 202.559,108.421 201.585 C 108.344 200.612,108.281 201.315,108.280 203.148 M229.948 201.089 C 230.429 201.509,230.999 201.852,231.214 201.852 C 231.669 201.852,231.648 201.833,230.185 200.977 L 229.074 200.326 229.948 201.089 M232.685 201.747 C 233.245 201.832,234.162 201.832,234.722 201.747 C 235.282 201.662,234.824 201.592,233.704 201.592 C 232.583 201.592,232.125 201.662,232.685 201.747 M177.097 204.275 C 176.477 205.637,176.595 205.928,177.266 204.689 C 177.579 204.111,177.766 203.569,177.682 203.484 C 177.597 203.400,177.334 203.755,177.097 204.275 M182.989 205.000 C 182.989 205.204,183.227 205.787,183.519 206.296 C 183.810 206.806,184.048 207.056,184.048 206.852 C 184.048 206.648,183.810 206.065,183.519 205.556 C 183.227 205.046,182.989 204.796,182.989 205.000 M253.684 208.426 L 252.407 209.815 253.796 208.538 C 255.089 207.350,255.355 207.037,255.073 207.037 C 255.011 207.037,254.386 207.662,253.684 208.426 M296.481 208.148 L 291.667 208.367 296.296 208.437 C 298.843 208.476,301.176 208.346,301.481 208.148 C 301.787 207.951,301.870 207.821,301.667 207.859 C 301.463 207.898,299.130 208.028,296.481 208.148 M286.936 208.415 C 287.594 208.497,288.760 208.499,289.529 208.418 C 290.297 208.338,289.759 208.271,288.333 208.270 C 286.907 208.268,286.279 208.334,286.936 208.415 M136.460 210.213 C 136.064 210.533,135.991 210.658,136.296 210.490 C 136.602 210.323,137.935 210.086,139.259 209.966 L 141.667 209.746 139.423 209.688 C 137.862 209.647,136.960 209.807,136.460 210.213 M144.172 209.895 C 144.735 209.981,145.568 209.978,146.024 209.890 C 146.479 209.802,146.019 209.733,145.000 209.736 C 143.981 209.738,143.609 209.810,144.172 209.895 M159.692 211.833 C 159.475 212.454,159.377 212.963,159.473 212.963 C 159.723 212.963,160.422 211.039,160.238 210.856 C 160.154 210.772,159.908 211.211,159.692 211.833 M283.828 213.333 C 283.828 214.861,283.894 215.486,283.974 214.722 C 284.053 213.958,284.053 212.708,283.974 211.944 C 283.894 211.181,283.828 211.806,283.828 213.333 M94.842 212.593 C 94.841 213.126,95.886 215.247,95.913 214.765 C 95.920 214.635,95.682 213.969,95.385 213.283 C 95.087 212.598,94.843 212.287,94.842 212.593 M232.685 214.700 C 233.042 214.793,233.625 214.793,233.981 214.700 C 234.338 214.607,234.046 214.530,233.333 214.530 C 232.620 214.530,232.329 214.607,232.685 214.700 M229.120 216.125 C 228.993 216.456,228.906 217.089,228.927 217.530 C 228.951 218.038,229.077 217.857,229.269 217.040 C 229.592 215.663,229.504 215.123,229.120 216.125 M97.295 217.958 C 97.633 218.669,97.976 219.184,98.057 219.104 C 98.226 218.934,97.102 216.667,96.848 216.667 C 96.755 216.667,96.956 217.248,97.295 217.958 M127.288 218.021 C 127.154 218.154,126.418 218.385,125.652 218.534 C 124.334 218.789,124.320 218.806,125.392 218.846 C 126.015 218.870,126.849 218.644,127.244 218.345 C 127.639 218.046,127.866 217.796,127.747 217.790 C 127.628 217.783,127.422 217.887,127.288 218.021 M118.889 218.513 C 119.194 218.714,119.847 218.880,120.340 218.883 C 121.528 218.891,121.227 218.680,119.630 218.387 C 118.718 218.220,118.498 218.257,118.889 218.513 M290.093 218.418 C 290.856 218.498,292.106 218.498,292.870 218.418 C 293.634 218.338,293.009 218.273,291.481 218.273 C 289.954 218.273,289.329 218.338,290.093 218.418 M300.838 218.414 C 301.401 218.499,302.235 218.497,302.690 218.409 C 303.146 218.321,302.685 218.251,301.667 218.254 C 300.648 218.257,300.275 218.329,300.838 218.414 M305.325 224.444 C 305.325 226.787,305.385 227.745,305.459 226.574 C 305.532 225.403,305.532 223.486,305.459 222.315 C 305.385 221.144,305.325 222.102,305.325 224.444 M141.852 224.259 C 140.952 225.176,140.299 225.926,140.401 225.926 C 140.503 225.926,141.323 225.176,142.222 224.259 C 143.122 223.343,143.775 222.593,143.673 222.593 C 143.571 222.593,142.751 223.343,141.852 224.259 M269.744 225.370 C 269.746 226.593,269.816 227.048,269.898 226.382 C 269.980 225.717,269.979 224.717,269.894 224.160 C 269.810 223.603,269.742 224.148,269.744 225.370 M178.056 223.965 C 178.514 224.053,179.264 224.053,179.722 223.965 C 180.181 223.877,179.806 223.805,178.889 223.805 C 177.972 223.805,177.597 223.877,178.056 223.965 M256.764 231.007 C 257.327 231.092,258.161 231.089,258.616 231.001 C 259.072 230.914,258.611 230.844,257.593 230.847 C 256.574 230.849,256.201 230.921,256.764 231.007 M287.319 231.003 C 287.780 231.091,288.447 231.088,288.801 230.995 C 289.155 230.903,288.778 230.830,287.963 230.834 C 287.148 230.838,286.858 230.914,287.319 231.003 M292.512 231.014 C 293.589 231.089,295.255 231.088,296.216 231.012 C 297.177 230.936,296.296 230.875,294.259 230.876 C 292.222 230.877,291.436 230.939,292.512 231.014 M117.319 231.373 C 117.780 231.462,118.447 231.458,118.801 231.366 C 119.155 231.273,118.778 231.200,117.963 231.205 C 117.148 231.209,116.858 231.284,117.319 231.373 M126.019 231.366 C 126.375 231.460,126.958 231.460,127.315 231.366 C 127.671 231.273,127.380 231.197,126.667 231.197 C 125.954 231.197,125.662 231.273,126.019 231.366 M121.389 231.743 C 121.847 231.831,122.597 231.831,123.056 231.743 C 123.514 231.655,123.139 231.582,122.222 231.582 C 121.306 231.582,120.931 231.655,121.389 231.743 " stroke="none" fill="#7ca4c4" fill-rule="evenodd"></path></g></svg>