<svg xmlns="http://www.w3.org/2000/svg" xmlns:xlink="http://www.w3.org/1999/xlink" width="851" zoomAndPan="magnify" viewBox="0 0 638.25 236.249991" height="315" preserveAspectRatio="xMidYMid meet" version="1.0"><defs><g/><clipPath id="87bcbb3462"><path d="M 46 0 L 592 0 L 592 235.503906 L 46 235.503906 Z M 46 0 " clip-rule="nonzero"/></clipPath><clipPath id="b611462d06"><rect x="0" width="546" y="0" height="236"/></clipPath></defs><g clip-path="url(#87bcbb3462)"><g transform="matrix(1, 0, 0, 1, 46, 0)"><g clip-path="url(#b611462d06)"><g fill="#248a74" fill-opacity="1"><g transform="translate(0.917102, 186.659019)"><g><path d="M 68.65625 1.578125 L 64.90625 1.375 L 61.34375 0.59375 L 57.40625 -0.796875 L 53.859375 -1.578125 L 44.984375 -5.328125 L 36.5 -9.859375 L 27.625 -17.5625 L 19.53125 -26.234375 L 11.046875 -43.40625 L 8.28125 -54.640625 L 7.109375 -69.046875 L 9.078125 -86.015625 L 11.046875 -94.09375 L 15.984375 -105.140625 L 19.734375 -110.859375 L 25.046875 -117.578125 L 33.53125 -125.265625 L 39.25 -129.609375 L 53.859375 -136.515625 L 72.984375 -140.25 L 85.21875 -140.0625 L 89.171875 -139.46875 L 92.90625 -139.265625 L 111.84375 -132.953125 L 125.265625 -124.46875 L 130.78125 -118.75 L 132.953125 -115 L 135.71875 -111.65625 L 137.5 -108.5 L 139.671875 -105.34375 L 140.84375 -101.203125 L 142.234375 -97.640625 L 143.40625 -93.3125 L 142.03125 -89.359375 L 138.671875 -87.78125 L 132.765625 -87.1875 L 127.234375 -87.78125 L 123.296875 -87.59375 L 119.15625 -87.78125 L 115.59375 -87.390625 L 111.0625 -89.5625 L 107.3125 -93.3125 L 105.140625 -96.265625 L 99.421875 -101.984375 L 96.65625 -104.15625 L 93.109375 -105.53125 L 87 -107.3125 L 78.515625 -107.703125 L 65.296875 -105.9375 L 59.96875 -102.96875 L 55.234375 -99.21875 L 50.5 -93.703125 L 48.53125 -89.953125 L 45.5625 -82.859375 L 44.1875 -74.96875 L 44.1875 -62.921875 L 44.78125 -58.59375 L 45.765625 -55.03125 L 47.140625 -52.28125 L 48.53125 -48.328125 L 52.875 -41.421875 L 58.59375 -36.296875 L 65.5 -32.75 L 72.59375 -30.1875 L 78.3125 -29.59375 L 88.765625 -30.1875 L 95.671875 -33.9375 L 98.640625 -35.109375 L 101.796875 -37.875 L 106.328125 -43 L 108.296875 -46.75 L 111.453125 -49.90625 L 116 -52.28125 L 119.9375 -52.078125 L 123.890625 -52.28125 L 127.828125 -51.6875 L 138.875 -52.46875 L 142.828125 -49.90625 L 144 -46.359375 L 138.875 -31.359375 L 134.734375 -24.265625 L 130.203125 -18.34375 L 124.671875 -12.828125 L 115 -5.921875 L 111.65625 -4.34375 L 107.515625 -2.953125 L 103.953125 -0.984375 L 92.328125 1.375 L 78.515625 2.375 Z M 68.65625 1.578125 "/></g></g></g><g fill="#248a74" fill-opacity="1"><g transform="translate(151.425218, 186.659019)"><g><path d="M 116.390625 0.390625 L 112.25 0 L 107.703125 -1.96875 L 103.765625 -4.9375 L 102.578125 -8.484375 L 100.796875 -12.234375 L 97.0625 -15.390625 L 92.71875 -17.5625 L 88.375 -16.96875 L 84.828125 -17.359375 L 65.5 -17.15625 L 61.9375 -17.75 L 53.65625 -16.96875 L 49.90625 -17.5625 L 45.765625 -15.390625 L 42.015625 -11.640625 L 38.46875 -5.125 L 34.71875 -1.578125 L 30.1875 -0.203125 L 19.140625 0.203125 L 15.1875 -0.203125 L 7.5 0.203125 L 3.546875 -0.984375 L 2.5625 -5.921875 L 3.75 -9.859375 L 7.6875 -17.75 L 8.6875 -21.3125 L 10.84375 -24.0625 L 13.8125 -31.953125 L 17.359375 -38.265625 L 18.734375 -42.21875 L 20.71875 -45.171875 L 21.890625 -49.515625 L 42.015625 -91.734375 L 43.203125 -95.28125 L 45.375 -99.03125 L 46.359375 -102.96875 L 48.53125 -105.9375 L 56.421875 -124.078125 L 58.1875 -126.84375 L 59.578125 -130.78125 L 61.34375 -134.140625 L 64.90625 -137.5 L 71.21875 -139.671875 L 77.71875 -137.6875 L 81.078125 -134.140625 L 84.828125 -127.234375 L 86.015625 -123.6875 L 88.171875 -120.140625 L 89.359375 -116.1875 L 102.375 -88.765625 L 103.765625 -84.625 L 107.90625 -77.328125 L 109.09375 -74.171875 L 110.859375 -71.21875 L 112.046875 -66.875 L 114.015625 -63.125 L 116 -60.171875 L 123.484375 -42.21875 L 127.4375 -35.109375 L 130.203125 -27.8125 L 135.515625 -17.5625 L 138.484375 -10.265625 L 139.859375 -5.71875 L 139.265625 -0.984375 L 133.75 0 L 127.625 0.203125 L 123.890625 -0.203125 Z M 71.609375 -48.71875 L 79.5 -48.921875 L 82.453125 -50.5 L 83.25 -54.046875 L 73.96875 -75.75 L 71.21875 -77.328125 L 69.046875 -75.546875 L 59.765625 -54.25 L 59.96875 -50.5 L 63.125 -49.125 L 67.65625 -49.515625 Z M 71.609375 -48.71875 "/></g></g></g><g fill="#248a74" fill-opacity="1"><g transform="translate(294.634777, 186.659019)"><g><path d="M 14.796875 -8.09375 L 14.796875 -37.28125 L 14.40625 -41.234375 L 14.59375 -57.203125 L 15 -60.953125 L 14.59375 -64.703125 L 14.59375 -68.65625 L 14.40625 -72.984375 L 15 -80.875 L 14.59375 -84.828125 L 14.40625 -130 L 16.765625 -135.515625 L 20.3125 -137.5 L 31.953125 -138.484375 L 36.296875 -138.28125 L 40.25 -137.5 L 44.1875 -137.5 L 47.734375 -138.484375 L 51.6875 -138.484375 L 55.625 -137.6875 L 67.46875 -137.6875 L 73.1875 -138.09375 L 79.5 -137.890625 L 90.75 -135.328125 L 98.234375 -132.765625 L 105.140625 -129.015625 L 116.390625 -117.171875 L 118.5625 -114.015625 L 120.140625 -110.671875 L 123.6875 -99.421875 L 124.28125 -95.484375 L 124.671875 -83.046875 L 122.109375 -71.609375 L 114.421875 -57.796875 L 111.65625 -55.4375 L 108.890625 -52.46875 L 107.109375 -48.140625 L 107.3125 -43.40625 L 109.6875 -40.4375 L 116 -30.1875 L 117.765625 -26.625 L 124.46875 -16.578125 L 126.046875 -12.828125 L 128.421875 -10.0625 L 130.59375 -5.71875 L 129.40625 -1.375 L 125.65625 0.390625 L 119.15625 0.59375 L 115.40625 0.203125 L 99.8125 0.390625 L 93.109375 -1.375 L 88.765625 -4.9375 L 86.59375 -8.28125 L 85.015625 -12.234375 L 82.859375 -15.1875 L 79.109375 -22.296875 L 74.96875 -28.203125 L 73.390625 -31.765625 L 71.015625 -35.703125 L 67.078125 -39.0625 L 55.625 -40.640625 L 51.875 -38.46875 L 50.109375 -34.515625 L 49.71875 -21.890625 L 50.296875 -17.75 L 49.90625 -14.203125 L 49.90625 -7.5 L 48.140625 -1.78125 L 41.828125 0.203125 L 35.90625 0.203125 L 32.75 0.59375 L 26.4375 0 L 22.484375 0.59375 L 16.765625 -1.96875 Z M 55.625 -72.203125 L 59.96875 -72.59375 L 69.4375 -72.203125 L 73.1875 -72.390625 L 78.90625 -73.78125 L 82.453125 -75.359375 L 84.625 -77.125 L 86.796875 -80.09375 L 88.578125 -84.03125 L 89.171875 -89.953125 L 88.375 -95.078125 L 87.1875 -98.234375 L 82.265625 -104.359375 L 78.515625 -105.34375 L 73.390625 -105.734375 L 67.859375 -106.921875 L 59.96875 -106.125 L 56.03125 -106.328125 L 51.875 -104.75 L 50.109375 -101 L 49.71875 -92.71875 L 50.109375 -89.359375 L 50.109375 -77.53125 L 51.6875 -74.375 Z M 55.625 -72.203125 "/></g></g></g><g fill="#248a74" fill-opacity="1"><g transform="translate(431.532086, 186.659019)"><g><path d="M 68.65625 0.59375 L 64.703125 0.203125 L 60.765625 0.59375 L 56.21875 0.390625 L 52.46875 -0.390625 L 44.390625 0.203125 L 40.828125 0 L 36.5 0.390625 L 22.296875 0.203125 L 16.375 -2.375 L 14.796875 -7.6875 L 14.40625 -12.03125 L 15 -25.640625 L 14.40625 -29.59375 L 14.796875 -33.34375 L 15 -65.296875 L 14.40625 -68.84375 L 14.59375 -85.015625 L 15 -88.765625 L 14.40625 -92.90625 L 14.796875 -112.25 L 14.203125 -116.578125 L 14.796875 -124.671875 L 14.40625 -132.171875 L 16.578125 -136.3125 L 20.71875 -137.890625 L 24.65625 -137.6875 L 28.609375 -138.09375 L 32.15625 -137.6875 L 35.90625 -138.484375 L 39.84375 -137.890625 L 56.03125 -138.28125 L 59.96875 -137.890625 L 63.328125 -138.09375 L 67.265625 -137.6875 L 71.609375 -138.09375 L 87.59375 -138.28125 L 91.140625 -137.5 L 95.28125 -137.5 L 99.21875 -135.921875 L 101 -132.171875 L 101.390625 -120.328125 L 101.203125 -116.390625 L 101.390625 -112.4375 L 99.421875 -108.890625 L 95.28125 -106.53125 L 91.53125 -106.328125 L 63.328125 -106.71875 L 59.578125 -105.9375 L 55.828125 -106.125 L 51.484375 -104.546875 L 49.71875 -100.796875 L 49.71875 -94.6875 L 51.296875 -88.578125 L 55.4375 -86.796875 L 66.875 -87.1875 L 75.15625 -86.59375 L 79.296875 -87 L 90.9375 -87 L 95.484375 -84.4375 L 97.453125 -78.90625 L 96.859375 -61.15625 L 95.484375 -57.203125 L 91.53125 -55.625 L 87 -55.828125 L 83.046875 -55.4375 L 74.96875 -55.625 L 67.46875 -55.234375 L 61.15625 -55.828125 L 55.234375 -55.625 L 51.6875 -53.453125 L 49.90625 -49.3125 L 49.90625 -36.890625 L 51.484375 -33.34375 L 55.625 -31.359375 L 59.96875 -31.765625 L 63.71875 -31.171875 L 68.0625 -31.359375 L 72 -30.96875 L 78.515625 -31.765625 L 88.578125 -31.5625 L 92.328125 -30.96875 L 96.859375 -31.359375 L 101 -29.59375 L 103.171875 -25.640625 L 103.171875 -5.71875 L 101 -1.578125 L 96.859375 0.203125 Z M 68.65625 0.59375 "/></g></g></g></g></g></g></svg>