<svg xmlns="http://www.w3.org/2000/svg" viewBox="0 0 1055 160.48"><defs><style>.a{fill:#4b2e83;}</style></defs><title>uw-logo-l</title><path d="M1030.61,94.26V66.47l19.29,31h1.89V63.58l3.21-3.21h-9.68l3.21,3.21V87.16L1031.8,60.38h-7.67l3.14,3.21V94.26l-3.14,3.21h9.69Zm-28.66,1.2c-7.42,0-10-8.87-10-16.53s2.58-16.54,10-16.54S1012,71.25,1012,78.92s-2.58,16.53-10.06,16.53M987.11,78.92c0,9.43,5.34,19.36,14.84,19.36s14.9-9.93,14.9-19.36-5.34-19.36-14.9-19.36-14.84,9.93-14.84,19.36M970.34,94.52V63.14h7l4,4V60.38H955.25V67.1l4-4h7V94.52l-2.89,3h9.93Zm-27.47-13.9V92.56a8,8,0,0,1-6.1,2.64c-8.24,0-12.39-8.3-12.39-16.29s5.22-16.28,12.39-16.28a5.66,5.66,0,0,1,4.53,1.76l4.09,4V62a16.55,16.55,0,0,0-8.61-2.14c-10.12,0-17.23,9.05-17.23,19.05,0,9.81,7.11,19,17.23,19,5.72,0,8.17-1.38,10.19-2.7V80.62l2.89-3h-9.93Zm-55,13.64V66.47l19.52,31h1.67V63.58l3.21-3.21h-9.68l3.2,3.21V87.16L889.07,60.38H881.4l3.14,3.21V94.26l-3.14,3.21h9.69ZM861.28,60.38l3,3V94.52l-3,3h10l-3-3V63.33l3-3h-10ZM828.34,78.86h15.59V94.52l-3,3h10l-3-3V63.33l3-3H841l3,3V76.09H828.34V63.33l3-3h-9.93l2.9,3V94.52l-2.9,3h9.93l-3-3V78.86Zm-16.72,8.3a8.22,8.22,0,0,0-3.46-7.11l-7.54-5.47c-2.71-1.95-4.09-4.46-4.09-6.35A5.22,5.22,0,0,1,801.87,63a21.14,21.14,0,0,1,2.39.44l3.27,3.52L811,61.76l-7.36-1.38a5.85,5.85,0,0,0-1.76-.19,9.34,9.34,0,0,0-9.43,9.12,10.71,10.71,0,0,0,4.78,8.49l7.61,5.47a6.3,6.3,0,0,1,2.64,5.41c0,3.14-1.95,6.54-6.16,6.54a6.3,6.3,0,0,1-2.58-.51l-3.52-4.15L792,96.34l7.1,1.39a12.93,12.93,0,0,0,2.21.25,10.65,10.65,0,0,0,10.31-10.81m-41.5-18.55L775.21,84H764.83Zm-8.93,26,2.7-7.86h12.26l2.58,7.86-2.89,2.89h10.5l-3-3L771.81,60.38h-1.89L758.16,94.45l-3,3h8.93Zm-39.44,2.89,8.49-26.85,8.24,26.85h1.89l10.75-34.14,3-3H745.2l2.89,2.89-7.86,25.65-7.61-25.65,2.89-2.89H725l3,3,0.75,2.45-7.11,23.13L714,63.27l2.89-2.89H706.4l3,3,10.44,34.14h1.89Zm-55-22.23-1.41,1.36,0.15,0.52h4.34c-0.68,4.7-1.31,8.77-2.3,15.35-1.41,9.77-2.61,13.22-3.6,14.05a1.92,1.92,0,0,1-1.31.47,7,7,0,0,1-2.3-.78,1.23,1.23,0,0,0-1.46.37,3.18,3.18,0,0,0-.89,1.77c0,1,1.36,1.57,2.25,1.57s3.5-.83,5.75-3.6c1.77-2.19,4.18-7.26,6.21-19.06,0.37-2.2.79-4.39,1.67-10.13l5.32-.52,1.15-1.36h-6.16c1.57-9.67,2.87-12.59,5.12-12.59a5.66,5.66,0,0,1,4,1.72,1.05,1.05,0,0,0,1.46-.05,3.06,3.06,0,0,0,1-1.93c0.05-1-1.36-2.19-3.13-2.19a11.59,11.59,0,0,0-8.41,4.39c-2,2.45-3.4,6.42-4.13,10.66h-3.4Zm-23.5,13.68c0-7.73,3.91-11.91,5.54-12.59a4.9,4.9,0,0,1,1.72-.42c2.61,0,4.13,2,4.13,6,0.1,6.79-3.45,13-5.64,13.68a5.3,5.3,0,0,1-1.62.36c-2.93,0-4.13-3.13-4.13-7.05M652.2,74a12.4,12.4,0,0,0-5.64,1.88C643,78,639,82.86,639,90.17c0,3.66,1.72,7.73,6.58,7.73,2.3,0,5.59-1.52,7.78-3.5,3.45-3.13,5.48-8.51,5.48-13.16,0-4.34-2.3-7.26-6.69-7.26M591.67,63.33L601,80.24V94.52l-3,3h10l-3-3V80.24l9.56-16.85,3.08-3h-9.18l2.89,2.89-7.8,13.89-7.42-13.89,2.89-2.89h-10.5ZM572.12,94.52V63.14h7l4,4V60.38H557V67.1l4-4h7V94.52l-2.89,3h9.93ZM538.48,60.38l3,3V94.52l-3,3h10l-3-3V63.33l3-3h-10ZM527.74,87.16a8.22,8.22,0,0,0-3.46-7.11l-7.55-5.47c-2.7-1.95-4.09-4.46-4.09-6.35A5.22,5.22,0,0,1,518,63a21.14,21.14,0,0,1,2.39.44l3.27,3.52,3.46-5.16-7.35-1.38a5.85,5.85,0,0,0-1.76-.19,9.34,9.34,0,0,0-9.43,9.12,10.72,10.72,0,0,0,4.78,8.49l7.61,5.47a6.3,6.3,0,0,1,2.64,5.41c0,3.14-2,6.54-6.16,6.54a6.27,6.27,0,0,1-2.58-.51l-3.52-4.15-3.2,5.78,7.11,1.39a12.87,12.87,0,0,0,2.2.25,10.65,10.65,0,0,0,10.31-10.81m-47.66-24h4.53a7.29,7.29,0,0,1,7.11,7.42,7,7,0,0,1-7.11,6.85h-4.53V63.14Zm0,31.37V80.18h5.6l9,17.29h6.16l-2.89-3-8.3-15.22c4.15-1.26,7-5.15,7-8.68,0-6.29-5.85-10.25-12-10.25H473.1l2.89,3V94.52l-2.89,3H483Zm-16.66,3V90.68l-4,4H448.2V79.11h8.36l3,3V73.39l-3,3H448.2V63.14h11.25l4,4V60.38H441.23l2.89,3V94.52l-2.89,3h22.19Zm-48.1-37.09h-10.5l3,3,10.44,34.14h1.89l10.75-34.14,3-3H425l2.89,2.89L420,88.92l-7.61-25.65Zm-28.79,0,3,3V94.52l-3,3h10l-3-3V63.33l3-3h-10ZM352,94.26V66.47l19.9,31h1.29V63.58l3.21-3.21h-9.68l3.21,3.21V87.16L353.21,60.38h-7.67l3.14,3.21V94.26l-3.14,3.21h9.68Zm-41.75-6.73c0,6.1,5.15,10.75,11.51,10.75,6,0,12-4.46,12-10.75v-24l3.14-3.21h-9.68l3.2,3.21v24a7.62,7.62,0,0,1-7.67,7.67c-4.34,0-8.17-3.34-8.17-7.67v-24l3.21-3.21H307.06l3.21,3.21v24Z"/><path class="a" d="M175.15,0V28.94H195.5l-22.71,84.53S145,1.58,144.59,0H115.2L84.71,113.48,63.79,28.94H85V0H0V28.94H18.83L51.71,160.48H97.32l21.77-82.77,20.69,82.77H185.4L220,28.94h18.67V0H175.15Z"/></svg>